<svg width="50" height="36" viewBox="0 0 50 36" fill="none" xmlns="http://www.w3.org/2000/svg">
<g opacity="0.93">
<path opacity="0.93" fill-rule="evenodd" clip-rule="evenodd" d="M49.083 0.919617C48.5851 2.05121 47.197 2.42841 46.2314 3.09228C43.2138 5.26494 40.0604 8.55411 36.5298 10.5306C34.2739 12.4926 31.8897 14.3021 29.3932 15.9472C28.156 16.8826 27.0999 18.0595 25.9079 18.9648C20.8082 22.8876 15.965 26.5087 10.7445 30.4165C10.2165 30.8088 9.62804 31.2162 9.00944 31.6386C7.60626 32.6043 5.99185 33.9169 4.61884 34.6562C4.03259 35.0797 3.32781 35.3076 2.60462 35.3076C1.88143 35.3076 1.17665 35.0797 0.590393 34.6562C0.8318 32.906 3.27603 31.2011 5.47887 29.3755C9.20559 26.3579 14.5316 22.3747 18.3941 19.6739C21.2759 17.5918 24.1879 15.4191 27.0848 13.5331C29.9817 11.6471 32.8936 9.58009 35.8207 7.82989C37.9632 6.5625 40.2113 5.58179 42.3085 4.42002C44.4057 3.25825 46.8047 2.02104 49.083 0.919617Z" fill="white"/>
</g>
</svg>
